<?xml version="1.0" encoding="utf-8"?>
<!-- Generator: Adobe Illustrator 28.2.0, SVG Export Plug-In . SVG Version: 6.00 Build 0)  -->
<svg version="1.1" id="Layer_1" xmlns="http://www.w3.org/2000/svg" xmlns:xlink="http://www.w3.org/1999/xlink" x="0px" y="0px" viewBox="0 0 612 792" style="enable-background:new 0 0 612 792;" xml:space="preserve">
  <g>
    <path d="M423.6929321,416.8484497c0-1.2729187,1.0328674-2.2123413,2.2559814-2.2123413
		c1.2078247,0,2.2393188,0.9394226,2.2393188,2.2123413c0,1.2839661-1.0314941,2.2234497-2.2393188,2.2234497
		C424.7257996,419.0718994,423.6929321,418.1324158,423.6929321,416.8484497L423.6929321,416.8484497z M425.9489136,418.7038879
		c1.0016785,0,1.7945251-0.7886658,1.7945251-1.8554382c0-1.0487366-0.7928467-1.8401489-1.7945251-1.8401489
		c-1.0176697,0-1.8084106,0.7914124-1.8084106,1.8401489C424.1405029,417.9152222,424.9312439,418.7038879,425.9489136,418.7038879
		L425.9489136,418.7038879z M425.4784851,418.1324158h-0.3887939v-2.5568848h0.9747009
		c0.6053467,0,0.9007263,0.2241821,0.9007263,0.7263794c0,0.4579773-0.2829285,0.6558533-0.6606445,0.7056274l0.7284546,1.1248779
		h-0.4344177l-0.6730957-1.1082153h-0.4469299V418.1324158L425.4784851,418.1324158z M425.9412842,416.6948547
		c0.3293152,0,0.6225891-0.0220947,0.6225891-0.4164734c0-0.3154297-0.2864075-0.3777161-0.5561523-0.3777161h-0.5292358v0.7941895
		H425.9412842L425.9412842,416.6948547z" />
    <path d="M430.6464844,380.5020142c-2.2509766,4.0878906-9.5829773,16.0820007-9.5829773,16.0820007l-2.1211243-3.5273132
		c1.3252258-2.2676086,6.3848267-10.8710938,8.5508118-14.5508118c0,0,0.5869141-1.2324829,3.4619141-1.2324829h4.789093
		C435.7442017,377.273407,432.2861938,377.5371094,430.6464844,380.5020142 M419.1445923,409.6542969
		c-0.9423828-1.5878906-11.9385071-19.8964844-12.9286804-21.5448914c-1.1729126-1.9590149-3.2198181-2.4160156-3.2198181-2.4160156
		h3.5751953c2.4795227,0,3.1758118,1.3515015,3.1758118,1.3515015l11.5166016,19.1817017L419.1445923,409.6542969z
		 M438.2618103,381.8554993h8.7674866v-8.9512024h-18.844696c-1.8056946,0.2460938-3.3895874,0.8770142-4.2773132,2.3691101
		c-1.890686,3.1601868-5.1230774,8.4824829-5.1230774,8.4824829s-2.023407-9.2226868-8.7098999-10.5762024
		c-0.5401001-0.1112976-1.0859985-0.1991882-1.6377258-0.2753906H392.101593v5.0566101h16.0292969
		c3.0458984,0,4.7949219,5.1699829,4.7949219,5.1699829s-1.4883118-1.4902954-4.3340149-1.4902954h-16.4237976
		c-0.0381165,3.0253906,0,9.1934204,0,9.1934204s5.023407-0.0195007,8.148407-0.0195007
		c0.9219055,0,1.6962891,0.2948914,2.2851868,1.0331726c0.2304993,0.367218,16.5654297,27.2480164,16.5654297,27.2480164
		s16.8339844-27.0820007,17.1777649-27.5429993c0,0,0.9472351-1.6191101,3.5693054-1.6191101h7.1152039v-4.5448914h-0.8309937
		h-7.8692017c-3.4463196,0-5.2880859,2.0448914-5.2880859,2.0448914l1.6113892-3.4375
		C435.6113892,381.8965149,438.2618103,381.8554993,438.2618103,381.8554993" />
    <polygon points="164.9707031,385.664093 178.2842102,412.9530945 184.7490997,412.9530945 198.0606079,385.664093 
		190.0507965,385.664093 183.753006,400.1387024 177.4561005,385.664093 	" />
    <path d="M205.5702972,404.7246094c0-2.6542969,3.1475067-3.5371094,9.1708984-5.1953125v1.3241882
		c0,0.9961243,0,2.6543274-0.6639862,4.0879211c-0.6641083,1.4394836-1.933609,2.5976868-4.5293121,2.5976868
		c-1.7138824,0-3.9776001-0.7734985-3.9776001-2.7616882V404.7246094z M226.3964996,412.9530945
		c-0.9393921-3.9198914-1.105484-6.6835938-1.105484-10.0527039v-7.3495789c0-2.8164062-0.2216187-4.4727173-1.325119-5.9649048
		c-2.1542969-2.9277039-7.4042969-4.4746094-13.0927887-4.4746094c-4.5283051,0-9.0039062,0.8282166-13.2022095,2.5371094
		l1.7118988,5.3046875c2.4297028-0.9902039,5.5782166-1.820282,8.5069122-1.820282
		c1.8241882,0,6.8514862,0.2773743,6.8514862,3.0956726v0.4375c-11.1053925,2.7617188-19.2801819,4.7539062-19.2801819,11.2149048
		c0,3.9785156,3.6444855,7.625,9.8866882,7.625c4.8105011,0,7.7920074-1.9863892,10.1123047-4.4179993l0.6620941,3.8652039
		H226.3964996z" />
    <rect x="228.0576019" y="372.9042969" width="11.0478992" height="40.0488014" />
    <path d="M241.0957031,385.664093v27.2890015h11.0478973v-13.3143921c0-2.9277954,0-7.6210938,4.6377106-7.6210938
		c3.8125,0,3.8125,3.093689,3.8125,4.8027039v16.132782h11.0487976v-13.3143921c0-2.9277954,0-7.6210938,4.6405945-7.6210938
		c3.8125,0,3.8125,3.093689,3.8125,4.8027039v16.132782h11.0478821v-17.2929077
		c0-3.0898743-0.2216797-4.4159851-0.9941711-5.7442017c-1.8242188-3.3125-5.8554077-4.8065796-9.7216187-4.8065796
		c-1.8242798,0-6.8505859,0.2792969-10.0556946,4.9725952c-2.0976868-3.6424866-6.0205078-4.9725952-9.5566101-4.9725952
		c-5.9677887,0-8.5624847,3.4277039-9.5019836,4.6972961l-0.8281097-4.1426086H241.0957031z" />
    <path d="M304.2753906,398.976593c0-5.0274048,0.881897-8.6719055,5.1914062-8.6719055
		c3.3710938,0,5.1407166,1.8223267,5.1407166,8.3437195c0,6.7363892-1.2705994,9.5527954-5.1407166,9.5527954
		c-3.9208984,0-5.1914062-2.7070007-5.1914062-9.1698914V398.976593z M292.5654907,399.6387024
		c0,7.1268921,5.3574219,13.8671875,16.5722046,13.8671875c10.7744141,0,17.179718-5.9120789,17.179718-14.4179993
		c0-7.6229858-5.0253906-13.976593-16.6846008-13.976593c-11.8759155,0-17.0673218,7.1270142-17.0673218,14.476593V399.6387024z" />
    <path d="M328.085022,385.664093v27.2890015h11.0497742v-13.3690796c0-2.9277039,0-7.5664062,5.0811157-7.5664062
		c3.813385,0,4.1991882,2.4296875,4.1991882,5.1914062v15.7440796h11.0508118V396.656311
		c0-3.4804993-0.0586243-5.0801086-0.9952087-6.7403259c-1.7675171-3.1483765-5.5830078-4.8065796-9.8330078-4.8065796
		c-3.9794922,0-7.9589844,1.4393921-10.3301086,4.5878906l-0.8329773-4.0332031H328.085022z" />
    <path d="M365.7450867,378.4277039l-0.4422913,7.2363892h-4.8613892v5.2480164h4.3661804v13.9219055
		c0,1.7675781-0.0545654,3.6444702,1.0518188,5.1933899c1.4902039,2.0975952,4.4179993,3.3691101,8.6132812,3.3691101
		c2.7090149,0,5.8037109-0.2773132,8.398407-0.9981079l-1.2714844-5.4100952
		c-0.6054077,0.1659851-1.547821,0.382782-2.5390015,0.382782c-3.1504211,0-3.2051086-1.4882812-3.2051086-3.7539062v-12.7050781
		h6.2412109v-5.2480164h-6.8476257v-7.2363892H365.7450867z" />
  </g>
</svg>